<svg width="320" height="240" viewBox="0 0 320 240" fill="none" xmlns="http://www.w3.org/2000/svg">
  <rect width="320" height="240" rx="32" fill="#0B1A31"/>
  <circle cx="160" cy="120" r="66" fill="#122744" stroke="#294A71" stroke-width="4"/>
  <circle cx="160" cy="120" r="34" fill="#64FFDA" fill-opacity="0.12" stroke="#64FFDA" stroke-width="4"/>
  <path d="M160 64V176" stroke="#E6F1FF" stroke-width="5" stroke-linecap="round"/>
  <path d="M104 120H216" stroke="#E6F1FF" stroke-width="5" stroke-linecap="round"/>
  <path d="M120 80L200 160" stroke="#7E93B8" stroke-width="4" stroke-linecap="round"/>
  <path d="M200 80L120 160" stroke="#7E93B8" stroke-width="4" stroke-linecap="round"/>
  <path d="M60 58L66 72L80 78L66 84L60 98L54 84L40 78L54 72L60 58Z" fill="#64FFDA"/>
  <path d="M256 42L261 54L274 59L261 64L256 76L251 64L238 59L251 54L256 42Z" fill="#E6F1FF"/>
  <path d="M256 162L262 176L276 182L262 188L256 202L250 188L236 182L250 176L256 162Z" fill="#4CA7FF"/>
</svg>
